<?xml version="1.0" standalone="no"?>
<!DOCTYPE svg PUBLIC "-//W3C//DTD SVG 20010904//EN"
 "http://www.w3.org/TR/2001/REC-SVG-20010904/DTD/svg10.dtd">
<svg version="1.0" xmlns="http://www.w3.org/2000/svg"
 width="256.000000pt" height="256.000000pt" viewBox="0 0 256.000000 256.000000"
 preserveAspectRatio="xMidYMid meet">

<g transform="translate(0.000000,256.000000) scale(0.100000,-0.100000)"
fill="#000000" stroke="none">
<path d="M540 2283 c-140 -23 -251 -125 -285 -260 -14 -53 -15 -154 -13 -775
l3 -713 27 -57 c34 -73 103 -142 176 -176 l57 -27 770 0 770 0 67 33 c77 38
130 92 167 171 l26 56 0 745 0 745 -27 57 c-48 102 -137 174 -246 197 -51 11
-1430 15 -1492 4z m595 -476 c116 -54 166 -130 173 -263 12 -222 -135 -354
-395 -354 l-53 0 0 -180 0 -180 -75 0 -75 0 0 506 0 506 183 -4 c175 -3 184
-4 242 -31z m693 -239 c25 -12 27 -19 30 -77 4 -76 -5 -88 -47 -67 -44 23
-143 32 -181 16 -37 -15 -55 -52 -40 -80 14 -25 63 -62 128 -94 62 -31 127
-88 148 -129 18 -33 21 -139 6 -178 -18 -46 -70 -96 -124 -119 -46 -20 -65
-22 -154 -18 -77 4 -110 9 -135 24 -32 19 -34 23 -37 83 -4 90 -2 93 53 66 79
-40 194 -44 230 -8 8 8 15 30 15 48 0 39 -18 55 -135 123 -112 65 -155 123
-155 212 0 102 67 183 174 211 43 11 191 3 224 -13z"/>
<path d="M864 1687 c-2 -7 -3 -87 -2 -177 l3 -165 57 -3 c119 -6 197 40 218
128 25 102 -24 194 -117 219 -54 15 -152 14 -159 -2z"/>
</g>
</svg>
